<?xml version="1.0" encoding="UTF-8"?> <svg xmlns="http://www.w3.org/2000/svg" xmlns:xlink="http://www.w3.org/1999/xlink" width="80px" height="80px" viewBox="0 0 80 80"><!-- Generator: Sketch 57.1 (83088) - https://sketch.com --><title>Blockchain_Development</title><desc>Created with Sketch.</desc><g id="Blockchain_Development" stroke="none" stroke-width="1" fill="none" fill-rule="evenodd"><g id="Blockchain-development" transform="translate(7.000000, 13.000000)" fill="#3C80BC" fill-rule="nonzero" stroke="#FFFFFF" stroke-width="0.25"><path d="M52.0613762,0 L38.1243637,8.0536714 L38.1243637,13.716321 L33.2348482,10.8906411 L19.2986414,18.9459254 L19.2986414,24.8811433 L13.9362068,21.7820886 L0,29.8373729 L0,45.9455222 L13.9370125,54 L27.8756363,45.9455222 L27.8756363,40.0103042 L33.2356539,43.1093589 L47.1726663,35.0556875 L47.1726663,29.3938444 L52.0613762,32.2195242 L66,24.16424 L66,8.0536714 L52.0613762,0 Z M41.7498077,8.7528337 L52.0613762,2.7926168 L62.374556,8.7528337 L52.0629875,14.7122441 L41.7498077,8.7528337 Z M53.2714689,16.8065051 L63.5830373,10.8479011 L63.5830373,22.7667219 L53.2698575,28.7261323 L53.2714689,16.8065051 Z M47.1726663,26.5980019 L47.1726663,18.9459254 L40.5421321,15.113839 L40.5421321,10.8479011 L50.8545062,16.8073115 L50.8537005,28.7261323 L47.1726663,26.5980019 Z M22.9248911,19.6434748 L33.2356539,13.6848707 L38.1243637,16.5105506 L38.1243637,22.7780117 L33.2364595,25.6020788 L22.9248911,19.6434748 Z M40.5421321,17.9072622 L43.545611,19.6434748 L40.5421321,21.3813001 L40.5421321,17.9072622 Z M27.8756363,37.2144617 L27.8756363,29.8365665 L21.7164097,26.2770485 L21.7164097,21.7385422 L32.0279782,27.6979526 L32.0271725,39.615967 L27.8756363,37.2144617 Z M41.7594756,23.4707226 L44.7557037,21.7393486 L44.7557037,25.2020967 L41.7594756,23.4707226 Z M3.625444,30.5357287 L13.9370125,24.5755118 L19.299447,27.6745666 L19.299447,33.3968908 L13.9378181,36.4951391 L3.625444,30.5357287 Z M34.4449409,27.6979526 L39.3417073,24.8682407 L44.7557037,27.9963263 L44.7557037,33.657363 L34.4441352,39.6167734 L34.4449409,27.6979526 Z M21.7164097,29.0704718 L24.2501923,30.5349223 L21.7164097,31.9993728 L21.7164097,29.0704718 Z M22.6985022,34.2242731 L25.4570623,32.6291833 L25.4570623,35.8201693 L22.6985022,34.2242731 Z M2.41615703,44.5463913 L2.41615703,32.6291833 L2.41696268,32.6291833 L12.7293368,38.5902065 L12.7277255,50.5066081 L2.41615703,44.5463913 Z M15.1454938,38.5910129 L20.2815395,35.6225976 L25.4570623,38.614399 L25.4570623,44.5471977 L15.1446882,50.5074145 L15.1454938,38.5910129 Z" id="Fill-1"></path></g></g></svg> 