<?xml version="1.0" encoding="UTF-8"?> <svg xmlns="http://www.w3.org/2000/svg" xmlns:xlink="http://www.w3.org/1999/xlink" width="80px" height="80px" viewBox="0 0 80 80"><!-- Generator: Sketch 57.1 (83088) - https://sketch.com --><title>Artificial-Intelligence</title><desc>Created with Sketch.</desc><g id="Artificial-Intelligence" stroke="none" stroke-width="1" fill="none" fill-rule="evenodd"><g id="Group-27" transform="translate(6.000000, 8.000000)" fill="#2E86BD" fill-rule="nonzero"><path d="M40.5433962,27.1493612 L24.069434,27.1493612 L24.069434,43.6062165 L40.5262893,43.6062165 L40.5433962,27.1493612 Z M38.6188679,41.6902417 L26.0110692,41.6902417 L26.0110692,29.0738895 L38.6103145,29.0738895 L38.6188679,41.6902417 Z" id="Shape"></path><path d="M63.6420126,51.4155247 L63.6420126,38.6879776 L44.8244025,38.6879776 L44.8244025,36.3314996 L48.1431447,36.3314996 L48.1431447,34.4069713 L44.8244025,34.4069713 L44.8244025,32.0504933 L48.1431447,32.0504933 L48.1431447,30.125965 L44.8244025,30.125965 L44.8244025,27.769487 L55.965283,27.769487 L55.965283,12.9591725 C58.6254502,12.4621141 60.4692757,10.0207891 60.2196827,7.32611661 C59.9700896,4.63144417 57.7092259,2.57031447 55.0030189,2.57031447 C52.2968119,2.57031447 50.0359481,4.63144417 49.7863551,7.32611661 C49.536762,10.0207891 51.3805876,12.4621141 54.0407547,12.9591725 L54.0407547,25.8492354 L44.8244025,25.8492354 L44.8244025,22.8555247 L41.8306918,22.8555247 L41.8306918,19.5496128 L39.9061635,19.5496128 L39.9061635,22.8683549 L37.5496855,22.8683549 L37.5496855,19.5496128 L35.6251572,19.5496128 L35.6251572,22.8683549 L33.2686792,22.8683549 L33.2686792,19.5496128 L31.3441509,19.5496128 L31.3441509,22.8683549 L28.987673,22.8683549 L28.987673,19.5496128 L27.0631447,19.5496128 L27.0631447,22.8683549 L24.7280503,22.8683549 L24.7280503,19.5496128 L22.7864151,19.5496128 L22.7864151,22.8683549 L19.7927044,22.8683549 L19.7927044,25.8620656 L17.4490566,25.8620656 L17.4490566,10.3888581 C20.1092237,9.89179963 21.9530493,7.4504746 21.7034562,4.75580215 C21.4538632,2.0611297 19.1929994,1.42108547e-14 16.4867925,1.42108547e-14 C13.7805855,1.42108547e-14 11.5197217,2.0611297 11.2701287,4.75580215 C11.0205356,7.4504746 12.8643612,9.89179963 15.5245283,10.3888581 L15.5245283,27.769487 L19.7927044,27.769487 L19.7927044,30.125965 L16.4867925,30.125965 L16.4867925,32.0504933 L19.7927044,32.0504933 L19.7927044,34.4069713 L6.21408805,34.4069713 L6.21408805,26.2341411 C8.87425519,25.7370827 10.7180807,23.2957576 10.4684877,20.6010852 C10.2188946,17.9064127 7.95803089,15.845283 5.2518239,15.845283 C2.54561691,15.845283 0.28475316,17.9064127 0.0351601172,20.6010852 C-0.214432926,23.2957576 1.62939261,25.7370827 4.28955975,26.2341411 L4.28955975,36.3314996 L19.7927044,36.3314996 L19.7927044,38.6879776 L16.4867925,38.6879776 L16.4867925,40.6125059 L19.7927044,40.6125059 L19.7927044,42.9689838 L4.28955975,42.9689838 L4.28955975,52.0484807 C1.62939261,52.5455391 -0.214432926,54.9868642 0.0351601172,57.6815366 C0.28475316,60.3762091 2.54561691,62.4373388 5.2518239,62.4373388 C7.95803089,62.4373388 10.2188946,60.3762091 10.4684877,57.6815366 C10.7180807,54.9868642 8.87425519,52.5455391 6.21408805,52.0484807 L6.21408805,44.8935121 L19.7927044,44.8935121 L19.7927044,47.8872228 L22.7864151,47.8872228 L22.7864151,51.205965 L24.7109434,51.205965 L24.7109434,47.8872228 L27.0631447,47.8872228 L27.0631447,51.205965 L28.987673,51.205965 L28.987673,47.8872228 L31.3441509,47.8872228 L31.3441509,51.205965 L33.2686792,51.205965 L33.2686792,47.8872228 L35.6251572,47.8872228 L35.6251572,51.205965 L37.5496855,51.205965 L37.5496855,47.8872228 L39.9061635,47.8872228 L39.9061635,51.205965 L41.8306918,51.205965 L41.8306918,47.8872228 L44.8244025,47.8872228 L44.8244025,44.8935121 L48.1431447,44.8935121 L48.1431447,42.9689838 L44.8244025,42.9689838 L44.8244025,40.6125059 L61.7046541,40.6125059 L61.7046541,51.4155247 C59.0444869,51.9125832 57.2006614,54.3539082 57.4502545,57.0485806 C57.6998475,59.7432531 59.9607112,61.8043828 62.6669182,61.8043828 C65.3731252,61.8043828 67.633989,59.7432531 67.883582,57.0485806 C68.1331751,54.3539082 66.2893495,51.9125832 63.6291824,51.4155247 L63.6420126,51.4155247 Z M51.6671698,7.79288322 C51.6671698,5.96235452 53.1511065,4.47841781 54.9816352,4.47841781 C56.8121639,4.47841781 58.2961006,5.96235452 58.2961006,7.79288322 C58.2961006,9.62341192 56.8121639,11.1073486 54.9816352,11.1073486 C53.1687319,11.0933847 51.7025174,9.62717015 51.6885535,7.81426686 L51.6671698,7.79288322 Z M13.1509434,5.22684548 C13.1509434,3.88626936 13.958487,2.677695 15.1970178,2.16467873 C16.4355486,1.65166246 17.8611593,1.93523405 18.8090898,2.88316451 C19.7570202,3.83109498 20.0405918,5.25670564 19.5275756,6.49523648 C19.0145593,7.73376732 17.8059849,8.54131089 16.4654088,8.54131089 C14.6508522,8.52731772 13.1839652,7.05852561 13.172327,5.2439524 L13.1509434,5.22684548 Z M1.91597484,21.0507449 C1.9348342,19.2275792 3.42268938,17.7619809 5.24593222,17.7705626 C7.06917507,17.77922 8.54310652,19.2588204 8.54472837,21.0820829 C8.54634754,22.9053454 7.07504854,24.3875636 5.2518239,24.3994241 C3.42227204,24.3970679 1.93971465,22.9145105 1.93735849,21.0849587 L1.91597484,21.0507449 Z M8.54490566,57.1591725 C8.55876833,58.5047162 7.75775313,59.7251043 6.51774533,60.2476563 C5.27773753,60.7702083 3.84486305,60.4912041 2.89151416,59.5415695 C1.93816526,58.591935 1.65356968,57.1601606 2.17127706,55.9181223 C2.68898444,54.6760841 3.90623638,53.870311 5.2518239,53.878921 C7.08137576,53.8812771 8.56393315,55.3638345 8.56628931,57.1933864 L8.54490566,57.1591725 Z M42.887044,45.9626945 L21.7300629,45.9626945 L21.7300629,24.7928832 L42.887044,24.7928832 L42.887044,45.9626945 Z M62.6669182,59.8748958 C60.8363895,59.8748958 59.3524528,58.3909591 59.3524528,56.5604304 C59.3524528,54.7299017 60.8363895,53.245965 62.6669182,53.245965 C64.4974469,53.245965 65.9813836,54.7299017 65.9813836,56.5604304 C65.9813836,58.3866611 64.5059549,59.869759 62.6797484,59.8791725 L62.6669182,59.8748958 Z" id="Shape"></path><path d="M23.6118239,13.0361537 C23.9111468,11.5346981 25.1210976,10.3829345 26.6354717,10.1579147 C28.0596226,9.90131089 30.0140881,10.3631977 31.3398742,12.3732606 L31.3398742,16.367726 L33.2644025,16.367726 L33.2644025,12.3219398 C34.006956,10.7326523 35.6713755,9.78473882 37.4171069,9.95690837 C39.1665688,10.1100562 40.6185385,11.372113 41.0138365,13.0831977 L41.2191195,13.9385436 L42.1001258,13.8016882 C42.9905809,13.6070143 43.9214024,13.8220608 44.6362264,14.3876002 C45.3452343,15.0940183 45.7093709,16.075468 45.6327044,17.0733864 L47.5572327,17.1033235 C47.653781,15.5363057 47.0470658,14.0077596 45.9021384,12.9335121 C44.99477,12.1658855 43.83048,11.7701491 42.6432704,11.8258392 C41.841598,9.80134291 40.0141021,8.36361626 37.8577878,8.0610067 C35.7014735,7.75839715 33.5488328,8.63756544 32.2208805,10.3631977 C30.7545407,8.67337909 28.5102819,7.87498768 26.3061635,8.25904674 C23.9996557,8.62316709 22.1664601,10.3897321 21.7172327,12.6811851 L23.6118239,13.0361537 Z" id="Path"></path><path d="M44.768805,57.7536379 C44.1914465,58.2753989 43.2805031,58.4849587 42.0573585,58.369487 L41.3559748,58.3010593 L41.0822642,58.9511222 C40.3381132,60.7174115 38.7899371,61.9448329 37.1433962,62.0517511 C35.6508176,62.1586694 34.2865409,61.358921 33.2943396,59.8064681 L33.2943396,55.8162794 L31.3398742,55.8162794 L31.3398742,59.8192983 C30.3348428,61.3631977 28.9791195,62.1586694 27.4908176,62.0517511 C25.8442767,61.9362794 24.2961006,60.7174115 23.5519497,58.9511222 L23.278239,58.3096128 L22.5811321,58.369487 C21.4306918,58.4678518 20.4983648,58.2283549 19.8996226,57.6723801 C19.1426415,56.9795499 18.9844025,55.8847071 18.9844025,55.1063423 L17.0598742,55.1063423 C17.0598742,56.8170342 17.5901887,58.1813109 18.5952201,59.1050845 C19.5561451,59.9378248 20.7972359,60.3749578 22.0679245,60.3282291 C23.0903081,62.3675627 25.0809903,63.7457273 27.3496855,63.9848329 C27.4836897,63.9848329 27.6176939,63.9848329 27.7516981,63.9848329 C29.5271406,63.9502223 31.1956216,63.1292983 32.3064151,61.7438266 C33.4172086,63.1292983 35.0856896,63.9502223 36.8611321,63.9848329 C36.9951363,63.9848329 37.1291405,63.9848329 37.2631447,63.9848329 C39.5284669,63.7460897 41.516854,62.3716212 42.5406289,60.3367826 C44.0146751,60.3567407 45.1836478,59.9746862 46.0475472,59.1906191 C47.0483019,58.2839524 47.552956,56.9068455 47.552956,55.1020656 L45.6284277,55.1020656 C45.6455346,56.329487 45.3504403,57.2276002 44.768805,57.7536379 Z" id="Path"></path><polygon id="Path" points="58.1036478 35.3777889 58.1036478 34.2016882 59.2840252 34.2016882 59.2840252 32.2771599 58.1036478 32.2771599 58.1036478 31.0967826 56.1791195 31.0967826 56.1791195 32.2771599 55.0030189 32.2771599 55.0030189 34.2016882 56.1791195 34.2016882 56.1791195 35.3777889"></polygon><polygon id="Path" points="12.0261635 48.2079776 10.1016352 48.2079776 10.1016352 49.3883549 8.92553459 49.3883549 8.92553459 51.3128832 10.1016352 51.3128832 10.1016352 52.4889838 12.0261635 52.4889838 12.0261635 51.3128832 13.2065409 51.3128832 13.2065409 49.3883549 12.0261635 49.3883549"></polygon><polygon id="Path" points="42.0616352 5.24822913 43.9861635 5.24822913 43.9861635 4.06785177 45.1665409 4.06785177 45.1665409 2.14332347 43.9861635 2.14332347 43.9861635 0.967222839 42.0616352 0.967222839 42.0616352 2.14332347 40.8855346 2.14332347 40.8855346 4.06785177 42.0616352 4.06785177"></polygon><polygon id="Path" points="1.17610063 10.4230719 3.10062893 10.4230719 3.10062893 9.24269454 4.28100629 9.24269454 4.28100629 7.31816623 3.10062893 7.31816623 3.10062893 6.14206561 1.17610063 6.14206561 1.17610063 7.31816623 1.10134124e-13 7.31816623 1.10134124e-13 9.24269454 1.17610063 9.24269454"></polygon><polygon id="Path" points="53.8269182 48.2208077 51.9023899 48.2208077 51.9023899 49.3969084 50.7220126 49.3969084 50.7220126 51.3214367 51.9023899 51.3214367 51.9023899 52.4975373 53.8269182 52.4975373 53.8269182 51.3214367 55.0030189 51.3214367 55.0030189 49.3969084 53.8269182 49.3969084"></polygon></g></g></svg> 