<?xml version="1.0" encoding="UTF-8"?> <svg xmlns="http://www.w3.org/2000/svg" xmlns:xlink="http://www.w3.org/1999/xlink" width="80px" height="80px" viewBox="0 0 80 80"><!-- Generator: Sketch 57.1 (83088) - https://sketch.com --><title>Team-Full-Stack-Developers</title><desc>Created with Sketch.</desc><g id="Team-Full-Stack-Developers" stroke="none" stroke-width="1" fill="none" fill-rule="evenodd"><g id="Group" transform="translate(10.000000, 11.000000)" fill="#2E86BD" fill-rule="nonzero" stroke="#2E86BD" stroke-width="0.38"><path d="M1.60000002,40.1600006 L1.60000002,29.6400004 C1.60000002,28.1600004 2.64000004,26.8800004 4.04000006,26.6000004 L6.8800001,25.8000004 L8.52000013,25.3200004 C8.72000013,25.2800004 8.88000013,25.0800004 8.88000013,24.8800004 L8.88000013,22.9600003 L8.80000013,22.8800003 C7.96000012,22.2400003 7.44000011,21.2400003 7.32000011,20.2000001 C7.28000011,19.8400003 7.28000011,19.5600003 7.24000011,19.4000003 L6.9200001,19.4000003 C6.6000001,19.4000003 6.32000009,19.1600003 6.28000009,18.8800003 L6,17.2000001 C5.92000009,16.7200002 6.32000009,16.2800002 6.8000001,16.2800002 L6.8800001,13.2000001 C6.8800001,11.3200002 8.44000013,9.76000015 10.3600002,9.76000015 L12.6000002,9.76000015 C14.5200002,9.76000015 16.0800002,11.2800002 16.0800002,13.2000001 L16.1600002,16.2800002 C16.6400002,16.2800002 17.0400003,16.7200002 16.9600003,17.2000001 L16.7200002,18.8000003 C16.6800002,19.1200003 16.4000002,19.3200003 16.0800002,19.3200003 L15.7600002,19.3200003 C15.7200002,19.4800003 15.7200002,19.8000003 15.6800002,20.1200003 C15.6000002,21.1600003 15.0400002,22.1600003 14.2000002,22.8000003 L14.0800002,22.8800003 L14.0800002,24.8000004 C14.0800002,25.0400004 14.2400002,25.2000001 14.4400002,25.2400004 L15.7200002,25.6000004 C16.4400002,25.1600004 17.2000003,24.8000004 18.0400003,24.6400004 L18.0800003,24.6400004 L15.6400002,23.9600004 L15.6400002,23.6000004 C16.4800002,22.7600003 17,21.7200003 17.1600003,20.6000003 C17.7200003,20.2800003 18.1600003,19.6800003 18.2400003,19.0400003 L18.4800003,17.4400003 C18.6000003,16.7600002 18.4000003,16.0400002 17.9200003,15.5200002 C17.8400003,15.4400002 17.7600003,15.3200002 17.6800003,15.2800002 L17.7200003,13.2000001 C17.7200003,10.4400002 15.4400002,8.20000012 12.6400002,8.20000012 L10.4000002,8.20000012 C7.60000011,8.20000012 5.32000008,10.4400002 5.32000008,13.2000001 L5.28000008,15.2800002 C5.20000008,15.3600002 5.12000008,15.4400002 5,15.5600002 C4.56000007,16.0800002 4.36000006,16.8000003 4.44000007,17.4800003 L4.68000007,19.0800003 C4.80000007,19.7600003 5.20000008,20.3200003 5.76000009,20.6800003 C5.92000009,21.8400003 6.4800001,22.8800003 7.28000011,23.6800004 L7.28000011,24.0000004 L6.4400001,24.2400004 L3.64000005,25.0400004 C1.52000002,25.5200004 0,27.4400004 0,29.6400004 L0,40.1600006 L0,41.0800006 L0.800000012,41.5600006 L12.2400002,48.3200007 L12.2400002,46.4800007 L1.60000002,40.1600006 Z" id="Path"></path><path d="M56.3200008,25.0800004 L52.6800008,24.0400004 L52.6800008,23.6800004 C53.4800008,22.8800003 54.0400008,21.8000003 54.2000008,20.6800003 C54.7600008,20.3600003 55.1600008,19.8000003 55.2800008,19.0800003 L55.5200008,17.4800003 C55.6400008,16.8000003 55.4400008,16.0800002 54.9600008,15.5600002 C54.8800008,15.4800002 54.8000008,15.3600002 54.7200008,15.2800002 L54.6800008,13.2000001 C54.6800008,10.4400002 52.4000008,8.20000012 49.6000007,8.20000012 L47.3600007,8.20000012 C44.5600007,8.20000012 42.2800006,10.4400002 42.2800006,13.2000001 L42.2400006,15.2800002 C42.1600006,15.3600002 42.0800006,15.4400002 42.0000006,15.5200002 C41.5600006,16.0400002 41.3600006,16.7600002 41.4400006,17.4400003 L41.6800006,19.0400003 C41.8000006,19.7200003 42.2000006,20.3200003 42.7600006,20.6400003 C42.9200006,21.7600003 43.4800006,22.8400003 44.2800007,23.6400004 L44.2800007,24.0000004 L43.4400006,24.2400004 L41.9200006,24.6800004 L41.9200006,24.6800004 C42.7600006,24.8800004 43.5600006,25.2000001 44.2800007,25.6800004 L45.4800007,25.3200004 C45.6800007,25.2800004 45.8400007,25.0800004 45.8400007,24.8800004 L45.8400007,22.9600003 L45.7200007,22.8800003 C44.8800007,22.2400003 44.3200007,21.2400003 44.2400007,20.2000001 C44.2000007,19.8400003 44.1600007,19.5200003 44.1600007,19.4000003 L43.8400007,19.4000003 C43.5200006,19.4000003 43.2400006,19.1600003 43.2000006,18.8800003 L42.9600006,17.2800003 C42.8800006,16.8000003 43.2800006,16.3600002 43.7600007,16.3600002 L43.8400007,13.2800002 C43.8400007,11.4000002 45.4000007,9.88000015 47.3200007,9.88000015 L49.5600007,9.88000015 C51.4800008,9.88000015 53.0400008,11.4000002 53.0400008,13.2800002 L53.1200008,16.3600002 C53.6000008,16.3600002 54.0000008,16.8000003 53.9200008,17.2800003 L53.6800008,18.8800003 C53.6400008,19.2000001 53.3600008,19.4000003 53.0400008,19.4000003 L52.7200008,19.4000003 C52.6800008,19.5600003 52.6800008,19.8800003 52.6400008,20.2000001 C52.5600008,21.2400003 52.0000008,22.2400003 51.1600008,22.8800003 L51.0400008,22.9600003 L51.0400008,24.8800004 C51.0400008,25.0800004 51.2000008,25.2800004 51.4000008,25.3200004 L55.8800008,26.6000004 C57.3200009,26.8800004 58.3200009,28.1600004 58.3200009,29.6400004 L58.3200009,40.1600006 L47.7200007,46.4000007 L47.7200007,48.2400007 L59.1200009,41.5200006 L59.9200009,41.0400006 L59.9200009,40.1200006 L59.9200009,29.6800004 C60.0000009,27.4800004 58.4800009,25.5600004 56.3200008,25.0800004 Z" id="Path"></path><path d="M24.9600004,9.60000014 C26.0800004,9.60000014 27.0400004,9.00000013 27.5600004,8.00000012 L27.6000004,7.92000012 C28.6000004,8.96000013 30.0000004,9.56000014 31.4800005,9.56000014 L35.8400005,9.56000014 L35.8400005,8.12000012 L35.8400005,7.96000012 L31.4800005,7.96000012 C30.1200004,7.96000012 28.8400004,7.20000011 28.2000004,6.04000009 L27.4800004,4.72000007 L26.1600004,7.24000011 C25.9200004,7.68000011 25.4800004,7.96000012 24.9600004,7.96000012 L24.2000004,7.96000012 L24.1600004,9.60000014 L24.1600004,9.60000014 L24.9600004,9.60000014 Z" id="Path"></path><path d="M41.6400006,25.8800004 L35.5200005,24.1200004 L35.5200005,23.6400004 L35.5200005,22.6000003 C36.8800005,21.3600003 37.7200006,19.6800003 37.8800006,17.8400003 C38.7200006,17.5200003 39.3200006,16.7600002 39.4800002,15.8400002 L39.8800006,13.4000002 C40.0000006,12.6000002 39.7600006,11.7600002 39.2400006,11.1600002 C39.0800006,10.9600002 38.8800006,10.8000002 38.6800006,10.6400002 L38.6000006,7.08000011 C38.6000006,3.36000005 35.5200005,0.320000005 31.7200005,0.320000005 L28.3200004,0.320000005 C24.5200004,0.320000005 21.4400003,3.36000005 21.4400003,7.08000011 L21.3600003,10.6400002 C21.1600003,10.8000002 20.9600003,10.9600002 20.8000003,11.1600002 C20.2800003,11.7600002 20.0400003,12.6000002 20.1600003,13.4000002 L20.5600003,15.8400002 C20.7200003,16.7600002 21.3200003,17.4800003 22.1600003,17.8000003 C22.3200003,19.6400003 23.2000003,21.32 24.5200004,22.5600003 L24.5200004,24.0800004 L22.6400003,24.6000004 L18.4000003,25.8000004 C15.5200002,26.4000004 13.4800002,29.0000004 13.4800002,31.9600005 L13.4800002,47.8800007 L13.4800002,48.8000007 L14.2800002,49.2800007 L29.4800002,58.2800009 L30.3200005,58.7600009 L31.1200005,58.2800009 L45.9200007,49.2800007 L46.6800007,48.8000007 L46.6800007,47.8800007 L46.6800007,32.0400005 C46.6000007,29.0800004 44.5200007,26.5200004 41.6400006,25.8800004 Z M45.0000002,47.9600007 L30.2000005,56.9600008 L15.0000002,47.9600007 L15.0000002,32.0400005 C15.0000002,29.8000004 16.5600002,27.88 18.7200003,27.4400004 L23.0400003,26.2000004 L25.5200004,25.4800004 C25.8400004,25.4000004 26.0800004,25.1200004 26.0800004,24.8000004 L26.0800004,23.8000004 L26.2000004,23.88 C27.0400004,24.4400004 28.0000002,24.7600004 29.0000002,24.7600004 L29.8000004,24.7600004 L29.8000004,23.1600003 L29.0000002,23.1600003 C28.3200004,23.1600003 27.6800004,22.9600003 27.1200004,22.5600003 L26.0800004,21.8400003 L26.0800004,21.8400003 L25.9200004,21.7200003 C24.6400004,20.7200003 23.8400004,19.2400003 23.6800004,17.6400003 C23.6400004,17.1200003 23.6000004,16.6400002 23.5600004,16.4000002 L23.0400003,16.4000002 C22.5600003,16.4000002 22.1600003,16.0400002 22.0800003,15.6000002 L21.6800003,13.1600002 C21.5600003,12.4400002 22.1200003,11.7600002 22.8800003,11.7600002 L23.0000002,7.08000011 C23.0000002,4.20000006 25.3600004,1.88000003 28.2800004,1.88000003 L31.6800005,1.88000003 C34.6000005,1.88000003 36.9600006,4.20000006 36.9600006,7.08000011 L37.0800006,11.7600002 C37.8400006,11.7600002 38.4000006,12.4000002 38.2800006,13.1600002 L37.8800006,15.6000002 C37.8000006,16.0800002 37.4000006,16.4000002 36.9200006,16.4000002 L36.4000005,16.4000002 C36.3600005,16.6400002 36.3200005,17.1200003 36.2800005,17.6400003 C36.1600005,19.2400003 35.3200005,20.7200003 34.0400005,21.7200003 L33.8800005,21.8400003 L33.8800005,23.6400004 L33.8800005,24.8000004 L33.8800005,27.8000004 L35.4800005,27.8000004 L35.4800005,25.7600004 L41.2000006,27.4000004 C43.3600006,27.8400004 44.9200007,29.7600004 44.9200007,32.0000005 L44.9200007,47.9600007 L45.0000002,47.9600007 Z" id="Shape"></path><path d="M26.5600004,37.0000006 C26.2400004,36.6800005 25.7600004,36.6800005 25.4400004,37.0000006 L22.4400003,40.0000006 C22.2800003,40.1600006 22.2000003,40.3600006 22.2000003,40.5600006 C22.2000003,40.7600005 22.2800003,40.9600006 22.4400003,41.1200006 L25.4400004,44.1200007 C25.6000004,44.2800007 25.8000004,44.3600007 26.0000004,44.3600007 C26.2000003,44.3600007 26.4000004,44.2800007 26.5600004,44.1200007 C26.8800004,43.8000007 26.8800004,43.3200006 26.5600004,43.0000006 L24.1200004,40.5600006 L26.5600004,38.1200006 C26.8800004,37.8400006 26.8800004,37.3200006 26.5600004,37.0000006 Z" id="Path"></path><path d="M37.5600006,40.0400006 L34.5600005,37.0400006 C34.2400005,36.7200005 33.7600005,36.7200005 33.4400005,37.0400006 C33.1200005,37.3600006 33.1200005,37.8400006 33.4400005,38.1600006 L35.8800005,40.6000006 L33.4400005,43.0400006 C33.1200005,43.3600006 33.1200005,43.8400007 33.4400005,44.1600007 C33.6000005,44.3200007 33.8000005,44.4000007 34.0000005,44.4000007 C34.2000005,44.4000007 34.4000005,44.3200007 34.5600005,44.1600007 L37.5600006,41.1600006 C37.7200006,41.0000006 37.8000006,40.8000005 37.8000006,40.6000006 C37.8000006,40.4000006 37.7200006,40.2000006 37.5600006,40.0400006 Z" id="Path"></path><path d="M31.0000005,36.8000005 C30.5600005,36.6800005 30.1200004,36.9600006 30.0400004,37.3600006 L28.4400004,43.4000006 C28.3200004,43.8400007 28.6000004,44.2800007 29.0000004,44.3600007 C29.0800004,44.3600007 29.1200004,44.4000007 29.2000004,44.4000007 C29.5600004,44.4000007 29.8800004,44.1600007 29.9600004,43.8000007 L31.5600005,37.7600006 C31.6800005,37.3600006 31.4400005,36.9200006 31.0000005,36.8000005 Z" id="Path"></path><path d="M30.0000004,29.4800004 C23.8800003,29.4800004 18.8800003,34.4800004 18.8800003,40.6000006 C18.8800003,46.7200007 23.8800003,51.7200008 30.0000004,51.7200008 C36.1200005,51.7200008 41.1200006,46.7200007 41.1200006,40.6000006 C41.1200006,34.4800004 36.1200005,29.4800004 30.0000004,29.4800004 Z M30.0000004,50.1200007 C24.7600004,50.1200007 20.4800003,45.8400007 20.4800003,40.6000006 C20.4800003,35.3600005 24.7600004,31.0800005 30.0000004,31.0800005 C35.2400005,31.0800005 39.5200006,35.3600005 39.5200006,40.6000006 C39.5200006,45.8400007 35.2400005,50.1200007 30.0000004,50.1200007 Z" id="Shape"></path></g></g></svg> 