<?xml version="1.0" encoding="UTF-8"?> <svg xmlns="http://www.w3.org/2000/svg" xmlns:xlink="http://www.w3.org/1999/xlink" width="80px" height="80px" viewBox="0 0 80 80"><!-- Generator: Sketch 57.1 (83088) - https://sketch.com --><title>Internet-of-Things</title><desc>Created with Sketch.</desc><g id="Internet-of-Things" stroke="none" stroke-width="1" fill="none" fill-rule="evenodd"><g id="Group-28" transform="translate(8.000000, 13.000000)" fill="#2E86BD" fill-rule="nonzero" stroke="#FFFFFF" stroke-width="0.5"><path d="M54.2671182,19.5369997 L47.6248183,8.00239986 C48.4487183,7.15259988 48.9569183,5.9947999 48.9569183,4.72079992 C48.9569183,2.11819996 46.8394183,-8.8817842e-15 44.2361183,-8.8817842e-15 C41.6328184,-8.8817842e-15 39.5153184,2.11749996 39.5153184,4.72079992 C39.5153184,7.32409988 41.6328184,9.44159984 44.2361183,9.44159984 C44.5504183,9.44159984 44.8570183,9.41009984 45.1538183,9.35129984 L51.8283182,20.9411996 C52.0887182,21.3933996 52.5619182,21.6467996 53.0484182,21.6467996 C53.2871182,21.6467996 53.5286182,21.5858996 53.7498182,21.4584996 C54.4239182,21.0706996 54.6549182,20.2103997 54.2671182,19.5369997 Z M42.3293184,4.72079992 C42.3293184,3.66939994 43.1854184,2.81399995 44.2368183,2.81399995 C45.2882183,2.81399995 46.1443183,3.66939994 46.1443183,4.72079992 C46.1443183,5.7721999 45.2882183,6.62829989 44.2368183,6.62829989 C43.1854184,6.62829989 42.3293184,5.7721999 42.3293184,4.72079992 Z" id="Shape"></path><path d="M49.3216182,43.6659993 L56.2334181,32.2909995 C57.3744181,32.6038994 58.6337181,32.4925994 59.7509181,31.8786995 C62.032218,30.6256995 62.868718,27.7507995 61.615718,25.4687996 C60.3620181,23.1874996 57.4871181,22.3509996 55.2058181,23.6046996 C52.9245182,24.8576996 52.0880182,27.7325995 53.3410182,30.0138995 C53.4922182,30.2896995 53.6672182,30.5430995 53.8618182,30.7754995 L46.9171183,42.2057993 C46.6462183,42.6516993 46.6525183,43.1885993 46.8863183,43.6155993 C47.0011183,43.8234993 47.1705183,44.0061993 47.3882183,44.1391992 C48.0525183,44.5416992 48.9184183,44.3302992 49.3216182,43.6659993 Z M56.5596181,26.0700996 C57.4815181,25.5639996 58.6428181,25.9020996 59.1496181,26.8239995 C59.6557181,27.7458995 59.3176181,28.9071995 58.3964181,29.4132995 C57.4752181,29.9193995 56.3132181,29.5812995 55.8071181,28.6600995 C55.3010181,27.7381995 55.6384181,26.5768995 56.5596181,26.0700996 Z" id="Shape"></path><path d="M7.74371896,35.6285994 L14.3860188,47.1638992 C13.5628189,48.0136992 13.0539189,49.1707992 13.0539189,50.4454991 C13.0539189,53.0487991 15.1714188,55.1662991 17.7747188,55.1662991 C20.3780187,55.1662991 22.4955187,53.0487991 22.4955187,50.4454991 C22.4955187,47.8428992 20.3780187,45.7246992 17.7747188,45.7246992 C17.4604188,45.7246992 17.1538188,45.7568992 16.8570188,45.8156992 L10.1818189,34.2250994 C9.92141892,33.7728994 9.44821893,33.5208994 8.96171894,33.5208994 C8.72371894,33.5208994 8.48151894,33.5810994 8.26101895,33.7084994 C7.58761896,34.0955994 7.35591896,34.9558994 7.74371896,35.6285994 Z M19.6815188,50.4447991 C19.6815188,51.4961991 18.8254188,52.3522991 17.7740188,52.3522991 C16.7233188,52.3522991 15.8672188,51.4968991 15.8672188,50.4447991 C15.8672188,49.3940992 16.7233188,48.5386992 17.7740188,48.5386992 C18.8261188,48.5386992 19.6815188,49.3940992 19.6815188,50.4447991 Z" id="Shape"></path><path d="M12.8768189,11.4995998 L5.96501899,22.8745996 C4.82331901,22.5616996 3.56401903,22.6729996 2.44681905,23.2868996 C0.165519086,24.5405996 -0.6709809,27.4161995 0.582719079,29.6974995 C1.83571906,31.9787995 4.71061901,32.8152994 6.99261897,31.5622995 C9.27461893,30.3085995 10.1111189,27.4336995 8.85741894,25.1516996 C8.70621894,24.8765996 8.53121894,24.6224996 8.33591895,24.3907996 L15.2806188,12.9604998 C15.5515188,12.5145998 15.5452188,11.9776998 15.3114188,11.5513998 C15.1966188,11.3427998 15.0272188,11.1593998 14.8088188,11.0270998 C14.1459188,10.6245998 13.2807189,10.8359998 12.8768189,11.4995998 Z M5.63811899,29.0961995 C4.71691901,29.6022995 3.55491903,29.2648995 3.04881904,28.3429995 C2.54271905,27.4217995 2.88081904,26.2597996 3.80201902,25.7536996 C4.72391901,25.2468996 5.88591899,25.5856996 6.39201898,26.5068995 C6.89811897,27.4287995 6.56071898,28.5900995 5.63811899,29.0961995 Z" id="Shape"></path><path d="M35.5036185,3.56019994 L22.1931187,3.54619994 C21.8690187,2.40799996 21.1207187,1.38879998 20.0168187,0.751799987 C17.7628188,-0.548799991 14.8697188,0.226099996 13.5684189,2.48009996 C12.2678189,4.73479992 13.0434189,7.62789987 15.2974188,8.92849985 C17.5514188,10.2290998 20.4445187,9.45349984 21.7451187,7.20019988 C21.9026187,6.92789988 22.0279187,6.64579989 22.1266187,6.35949989 L35.5008185,6.37349989 C36.0230185,6.37349989 36.4780185,6.0906999 36.7216185,5.6685999 C36.8406185,5.46279991 36.909219,5.22269991 36.909219,4.96719992 C36.9099185,4.19159993 36.2806185,3.56089994 35.5036185,3.56019994 Z M16.7030188,6.49179989 C15.7930188,5.9667999 15.4794188,4.79849992 16.0051188,3.88779993 C16.5301188,2.97639995 17.6984188,2.66349995 18.6091188,3.18919995 C19.5198188,3.71489994 19.8334188,4.88319992 19.3077188,5.7931999 C18.7827188,6.70459989 17.6137188,7.01749988 16.7030188,6.49179989 Z" id="Shape"></path><path d="M24.9231181,50.5980991 C24.9231181,50.8535991 24.9917187,51.0929991 25.1107187,51.2994991 C25.3543187,51.7208991 25.8100186,52.0043991 26.3322186,52.0036991 L39.7064184,51.9903991 C39.8044184,52.2773991 39.9297184,52.5587991 40.0872184,52.8310991 C41.3878184,55.0850991 44.2809183,55.860699 46.5356183,54.5593991 C48.7896183,53.2587991 49.5652182,50.3656991 48.2639183,48.1116992 C46.9633183,45.8569992 44.0695183,45.0813992 41.8155184,46.3833992 C40.7123184,47.0203992 39.9633184,48.0388992 39.6399184,49.1770992 L26.3294186,49.1903992 C25.5517187,49.1903992 24.9224187,49.8210992 24.9231181,50.5980991 Z M42.5232184,51.4233991 C41.9982184,50.5133991 42.3111184,49.3443992 43.2218184,48.8186992 C44.1318183,48.2929992 45.3008183,48.6058992 45.8272183,49.5165992 C46.3522183,50.4272991 46.0393183,51.5962991 45.1286183,52.1212991 C44.2179183,52.6476991 43.0489184,52.3340991 42.5232184,51.4233991 Z" id="Shape"></path><path d="M30.8738186,32.2076995 C28.3258186,32.2076995 26.2524186,30.1342995 26.2524186,27.5862995 C26.2524186,25.0382996 28.3258186,22.9648996 30.8738186,22.9648996 C33.4225185,22.9648996 35.4952185,25.0382996 35.4952185,27.5862995 C35.4952185,30.1342995 33.4225185,32.2076995 30.8738186,32.2076995 Z M30.8738186,25.5905996 C29.7734186,25.5905996 28.8781186,26.4858995 28.8781186,27.5862995 C28.8781186,28.6866995 29.7734186,29.5819995 30.8738186,29.5819995 C31.9742185,29.5819995 32.8695185,28.6866995 32.8695185,27.5862995 C32.8695185,26.4858995 31.9742185,25.5905996 30.8738186,25.5905996 Z" id="Shape"></path><path d="M22.6026187,28.8994995 C21.8767187,28.8994995 21.2894187,28.3114995 21.2894187,27.5862995 C21.2894187,22.3012996 25.5888187,18.0018997 30.8738186,18.0018997 C31.5997186,18.0018997 32.1870185,18.5891997 32.1870185,19.3150997 C32.1870185,20.0395997 31.5997186,20.6275996 30.8738186,20.6275996 C27.0371186,20.6275996 23.9151187,23.7488996 23.9151187,27.5862995 C23.9151187,28.3114995 23.3271187,28.8994995 22.6026187,28.8994995 Z" id="Path"></path><path d="M30.8738186,37.1706994 C30.1486186,37.1706994 29.5613186,36.5833994 29.5613186,35.8581994 C29.5613186,35.1336994 30.1493186,34.5456994 30.8738186,34.5456994 C34.7105185,34.5456994 37.8318184,31.4236995 37.8318184,27.5869995 C37.8318184,26.8617995 38.4198184,26.2744996 39.1450184,26.2744996 C39.8702184,26.2744996 40.4575184,26.8624995 40.4575184,27.5869995 C40.4582184,32.8712994 36.1588185,37.1706994 30.8738186,37.1706994 Z" id="Path"></path><path d="M17.8713188,28.8994995 C17.1468188,28.8994995 16.5588188,28.3114995 16.5588188,27.5862995 C16.5588188,19.6930997 22.9813187,13.2705998 30.8752186,13.2705998 C31.6004186,13.2705998 32.1884185,13.8585998 32.1884185,14.5830998 C32.1884185,15.3089997 31.6004186,15.8962997 30.8752186,15.8962997 C24.4296187,15.8962997 19.1852188,21.1399996 19.1852188,27.5855995 C19.1845188,28.3114995 18.5972188,28.8994995 17.8713188,28.8994995 Z" id="Path"></path><path d="M30.8745186,41.9019993 C30.1486186,41.9019993 29.5620186,41.3139993 29.5620186,40.5887993 C29.5620186,39.8635993 30.1493186,39.2755993 30.8745186,39.2755993 C37.3201185,39.2755993 42.5638184,34.0311994 42.5638184,27.5855995 C42.5638184,26.8603995 43.1518184,26.2730996 43.8770183,26.2730996 C44.6015183,26.2730996 45.1895183,26.8610995 45.1895183,27.5855995 C45.1895183,35.4801994 38.7677184,41.9019993 30.8745186,41.9019993 Z" id="Path"></path></g></g></svg> 