<?xml version="1.0" encoding="UTF-8"?> <svg xmlns="http://www.w3.org/2000/svg" xmlns:xlink="http://www.w3.org/1999/xlink" width="74px" height="74px" viewBox="0 0 74 74"><!-- Generator: Sketch 60 (88103) - https://sketch.com --><title>Predictive-Analytics</title><desc>Created with Sketch.</desc><g id="Predictive-Analytics" stroke="none" stroke-width="1" fill="none" fill-rule="evenodd"><g id="Group-6" transform="translate(9.000000, 9.000000)" fill="#2E86BD"><path d="M10.1283279,47.8225269 C10.1344819,46.5663502 9.20620884,45.6221092 7.95632932,45.6132257 C6.68643373,45.6040048 5.76209639,46.5155229 5.75599126,47.7829446 C5.74972691,49.0629606 6.64988755,49.9780771 7.92293173,49.9858361 C9.19923695,49.9937076 10.122,49.0884867 10.1283279,47.8225269 M30.6113655,42.8208462 C29.3514779,42.8151373 28.3763133,43.7537558 28.3592209,44.9886795 C28.3425783,46.1965028 29.3295502,47.1923582 30.5676225,47.2168723 C31.8114297,47.2414988 32.7747871,46.2914104 32.7813467,45.0334345 C32.7880562,43.7504948 31.8819357,42.8264948 30.6113655,42.8208462 M18.4060643,39.0900161 C19.6619036,39.0920369 20.6356064,38.1464466 20.6396657,36.9207438 C20.6434779,35.7069606 19.6592048,34.6908643 18.4549799,34.6655631 C17.2473815,34.6402618 16.2144177,35.6790731 16.2153167,36.9174827 C16.2162169,38.2148161 17.0965863,39.0876514 18.4060643,39.0900161 M40.2794618,31.1553073 C39.0363293,31.1607277 38.0899518,32.1237478 38.1009719,33.372053 C38.1118795,34.6060771 39.0706265,35.5981092 40.2404418,35.5860771 C41.5051647,35.5729205 42.5214859,34.5876353 42.5255475,33.3705912 C42.5296948,32.1044064 41.5619518,31.1499325 40.2794618,31.1553073 M22.9771486,5.06708916 C24.8845221,5.06708916 26.792008,5.05224578 28.6990442,5.07687229 C29.2131647,5.08350683 29.3407952,4.88413333 29.3172932,4.41296867 C29.2546586,3.15780402 28.0942892,2.03083213 26.6612289,2.00541847 C24.2124096,1.96201285 21.7616787,1.96156305 19.3128594,2.00553092 C17.8566345,2.03173173 16.6924418,3.18288032 16.6457751,4.46413333 C16.6287952,4.93293655 16.7921847,5.08013333 17.2550281,5.07541044 C19.1621767,5.05561928 21.0697751,5.06708916 22.9771486,5.06708916 M51.7803775,54.2376977 C53.5417912,54.2246313 54.6595422,52.5322618 53.8554137,50.987539 C52.423253,48.2361173 50.9210361,45.5213542 49.4570522,42.7863502 C49.3001847,42.4931936 49.1496145,42.4289847 48.8435261,42.5929365 C47.7400562,43.1841976 46.6270281,43.7582538 45.5097269,44.3232016 C45.1952048,44.4823181 45.1826104,44.6563904 45.3393655,44.9447116 C46.8115582,47.6538522 48.2641847,50.3736755 49.7454859,53.0777558 C50.1739197,53.8600691 50.8802169,54.241049 51.7803775,54.2376977 M23.0464177,6.93746667 C19.7761526,6.93746667 16.5058876,6.94601285 13.2357349,6.92813333 C12.7468032,6.92554699 12.5795904,7.07577992 12.5886988,7.56786024 C12.6141124,8.95009317 12.6135502,10.3335631 12.5888112,11.7160209 C12.5801526,12.2020289 12.737245,12.3622699 13.2312369,12.3612626 C19.7716546,12.3479888 26.3121847,12.3490008 32.8526024,12.3610329 C33.3173574,12.3618201 33.4743373,12.2088884 33.4670281,11.748294 C33.4454378,10.3843904 33.4338554,9.0194747 33.4704016,7.65624578 C33.4855823,7.09186024 33.3176948,6.9203743 32.7448755,6.92487229 C29.5121687,6.95073574 26.2792369,6.93735422 23.0464177,6.93746667 M27.8570201,28.1083904 C27.7512048,32.5923261 30.7584498,36.5895791 34.6019839,38.1596032 C34.9328112,38.2947679 35.1460161,38.2671052 35.3695663,37.9748482 C35.766739,37.4553301 36.1738072,36.9382859 36.6254056,36.4667839 C36.9888434,36.0873783 37.066996,35.773306 36.7708032,35.2970811 C36.3694699,34.6520691 36.197759,33.9139486 36.2715261,33.1459165 C36.5017108,30.7493863 38.5698876,29.110543 40.9326827,29.4406956 C43.1591888,29.7519566 44.6655663,31.9126795 44.2651325,34.2208241 C43.9047309,36.2984466 41.6176145,37.9811454 39.7021446,37.3478281 C38.5793333,36.9766313 38.0156225,37.2899165 37.4905944,38.1494827 C37.423012,38.2600209 37.3301285,38.3565028 37.2412932,38.4525349 C37.0235904,38.6876675 37.0161687,38.8060771 37.3886024,38.8603904 C38.3963775,39.0071373 39.4003293,39.0116353 40.4036064,38.8508321 C42.9738715,38.4384787 45.2268032,37.4134988 46.9735984,35.4213382 C48.4998795,33.6806153 49.3643936,31.6519084 49.6337108,29.3573703 C49.9602651,26.5771614 49.4838153,23.9546072 47.8249558,21.681547 C45.2788675,18.1925671 41.7368112,16.8594747 37.5075743,17.3581896 C31.949743,18.013547 27.8630924,22.6046474 27.8570201,28.1083904 M1.84760131,32.0397478 C1.84760131,34.6205831 1.84760131,37.2015309 1.84760131,39.7823663 C1.84828112,44.083796 1.84760131,48.3853382 1.85041767,52.6867679 C1.85097992,53.5079888 2.16145382,53.9368723 2.87449799,54.1599727 C3.16810442,54.2519566 3.46699598,54.2303663 3.7646506,54.2303663 C16.575494,54.232053 29.3864498,54.2318281 42.1974056,54.231041 C42.4215181,54.231041 42.6487791,54.2408241 42.8694056,54.2096755 C43.5619839,54.1120691 44.125245,53.5689365 44.0797028,53.0256916 C43.9510602,51.4943502 43.9789478,49.9578361 44.0421446,48.4298683 C44.0990442,47.0515711 43.8613253,45.8200209 43.0579839,44.6793301 C42.6123454,44.0466876 42.7995743,43.5474104 43.5005863,43.1700289 C43.9451004,42.9306233 44.3871406,42.6822217 44.8495341,42.4825108 C45.2695341,42.3011293 45.3722008,42.0933221 45.1193012,41.6797317 C44.7979197,41.1542538 44.5072369,40.6065108 44.249502,40.0470731 C44.0743052,39.6668803 43.8748193,39.6306715 43.5059839,39.7793301 C41.0653735,40.7631534 38.5504337,41.0033462 35.9746586,40.44031 C35.6204418,40.3628321 35.4091486,40.4604386 35.2046024,40.7207598 C34.8232851,41.2057558 34.4416305,41.6918763 34.0328755,42.1534827 C33.7859357,42.4324707 33.7627711,42.6491614 33.9607952,42.9879727 C34.7420964,44.324551 34.747494,45.7035229 33.9818233,47.0419004 C32.9963133,48.7645189 30.9166667,49.4772257 29.0718153,48.7768884 C27.2151566,48.0721655 26.1456466,46.1321815 26.565759,44.1667839 C26.6570683,43.7396996 26.5913976,43.494559 26.2043454,43.2472819 C24.6284739,42.2409687 23.0719438,41.2040691 21.5205863,40.1600851 C21.1963936,39.9419325 20.9627229,39.9236032 20.6246988,40.1607598 C19.403494,41.0177398 18.0751245,41.2036193 16.6959277,40.5887438 C16.3123614,40.4177076 16.0998313,40.4851775 15.8324257,40.7709124 C14.4781928,42.2181414 13.1174378,43.6597478 11.7326185,45.0777398 C11.3863855,45.4320691 11.3053092,45.6902538 11.5282972,46.1813221 C12.1865783,47.6319245 11.9923775,49.0467679 11.0126024,50.2933863 C10.029004,51.5449526 8.69253815,52.0471534 7.1271245,51.7511855 C5.49334137,51.442061 4.40190361,50.4457558 3.97020884,48.839298 C3.54526104,47.257804 3.97043373,45.8540932 5.20085944,44.7746876 C6.45208835,43.6770651 7.912249,43.4828643 9.44437751,44.1107839 C9.86831325,44.2845189 10.1005221,44.2262699 10.4003133,43.9034265 C11.7493735,42.4513622 13.1105783,41.0098683 14.4997831,39.5963743 C14.8480402,39.2419325 14.8832369,38.9819486 14.6676707,38.5388964 C13.9577751,37.0798602 14.2990602,35.2657076 15.4489719,34.0727277 C16.5382731,32.9427197 18.3442169,32.5565671 19.8035904,33.1415309 C21.6397831,33.8776273 22.6607149,35.7025751 22.282996,37.660551 C22.1880884,38.1525189 22.2759116,38.4297076 22.7166024,38.7076835 C24.3133896,39.7156835 25.884988,40.764053 27.4534378,41.8159084 C27.788988,42.0409205 28.0148996,42.0925349 28.3782249,41.8103984 C29.2557831,41.1289526 30.3210201,40.7124386 31.369502,41.1224305 C32.4904016,41.5607598 32.9631406,41.0104305 33.5152691,40.2564546 C33.8084257,39.8560209 33.7356707,39.7326635 33.3256787,39.5435229 C28.8098072,37.4615149 25.6543534,32.592551 26.1408112,27.2734506 C26.5961205,22.2964225 29.174257,18.7479566 33.6616787,16.6522297 C36.9078795,15.1361815 40.2819357,15.1100932 43.6528434,16.3160048 C44.1165863,16.4818683 44.2297108,16.3975309 44.2220643,15.9132096 C44.1983373,14.3987357 44.2173414,12.8835871 44.2116064,11.3687759 C44.208008,10.4309446 43.667012,9.85913735 42.7196225,9.85205301 C40.4194618,9.83466143 38.1189639,9.85092851 35.8186908,9.83889639 C35.4328755,9.83687229 35.2856787,9.9696755 35.2938876,10.360551 C35.3125542,11.2391213 35.3064819,12.1185912 35.2953494,12.9973863 C35.286241,13.718302 35.0014056,14.0170811 34.2888112,14.0771293 C34.0843775,14.0944466 33.8776948,14.0875871 33.6720241,14.0875871 C29.2958153,14.0880369 24.919494,14.0882618 20.5432851,14.0879245 C17.7192209,14.087812 14.8952691,14.0896112 12.0712048,14.0844386 C11.0390281,14.0826394 10.7665622,13.8073622 10.7633012,12.795539 C10.7608273,12.0100771 10.7393494,11.2236032 10.7711727,10.4394908 C10.7904016,9.96540241 10.6117189,9.8310249 10.1557349,9.83466143 C7.94902008,9.85261526 5.74208032,9.83878394 3.53525301,9.84485622 C2.34553414,9.84800482 1.84805622,10.3604386 1.84760131,11.5610651 C1.84760131,18.3872177 1.84760131,25.2134827 1.84760131,32.0397478 M45.955253,50.1118924 C45.955253,50.9339004 45.9567149,51.7559084 45.9551406,52.5776916 C45.9512048,54.5827839 44.5916867,55.9654667 42.5800723,55.9697398 C37.7551888,55.9797478 32.9301928,55.9739004 28.1054217,55.9739004 C19.9330201,55.9740129 11.7606185,55.9722137 3.58832932,55.9763743 C2.80208032,55.9768241 2.06497189,55.8296273 1.40747791,55.3808402 C0.411285141,54.7008562 -0.00163052209,53.7426715 5.10796131e-05,52.5511534 C0.00927710843,45.8748964 0.00444176707,39.1986394 0.00455421687,32.5223823 C0.00455421687,25.5467839 0.00399196787,18.5714104 0.00534136546,11.595812 C0.00567871486,9.25100884 1.28220884,7.93770763 3.62903614,7.91195663 C5.7233012,7.88890442 7.81801606,7.90790843 9.91250602,7.90599679 C10.6571486,7.90532209 10.6573735,7.90217349 10.6604096,7.15483213 C10.6619839,6.7808241 10.6474779,6.40602892 10.6664819,6.03303293 C10.6988675,5.39701687 11.0231727,5.08013333 11.6618876,5.0705751 C12.5032369,5.05809317 13.3450361,5.05843052 14.1863855,5.0703502 C14.5215984,5.07507309 14.7108514,4.99455904 14.7113012,4.60671968 C14.714,2.23594056 16.6910924,0.217579116 19.4227229,0.156069076 C21.7405382,0.103892369 24.0620643,0.0900610442 26.378755,0.162141365 C28.380249,0.224438554 29.9154137,1.13269558 30.777004,3.02061526 C31.0169719,3.54620562 31.052506,4.10609317 31.0863534,4.66339438 C31.1096305,5.04561124 31.2640241,5.1832498 31.6436546,5.17515341 C32.5034458,5.1568241 33.3641365,5.16255904 34.2241526,5.17402892 C34.9024498,5.1830249 35.1744659,5.45650281 35.1903213,6.12928996 C35.2013414,6.59651888 35.2169719,7.06577189 35.1862731,7.53131406 C35.1565863,7.98066345 35.3371807,8.11054297 35.7702249,8.10761928 C38.0703855,8.09266345 40.3707711,8.08850281 42.6708193,8.10671968 C44.2831245,8.11953896 45.5915904,9.18421365 45.8995904,10.6975631 C45.947494,10.9330329 45.9526667,11.1801976 45.9532289,11.4219647 C45.957502,13.2733382 45.9582892,15.1247116 45.9532289,16.9761976 C45.9523293,17.287796 45.9912369,17.5372096 46.2884418,17.7433301 C49.3990281,19.9006795 51.1115261,22.8969044 51.4681044,26.6432819 C51.8694378,30.8589124 50.5850361,34.4931775 47.5360723,37.4691614 C47.0802008,37.9141253 46.5748514,38.3026394 46.0372289,38.6440369 C45.8055823,38.7911213 45.7393494,38.9396675 45.8801365,39.1941414 C46.2331165,39.8318442 46.5750763,40.4761815 46.9079277,41.1246795 C47.0403936,41.3828643 47.1983855,41.424808 47.4471245,41.2885189 C47.9388675,41.0189767 48.4362329,40.7593301 48.9356225,40.504294 C49.66351,40.1324225 50.0556225,40.2453221 50.4531325,40.9680369 C51.4259357,42.7373221 52.387494,44.5129044 53.3536627,46.2859004 C54.0067711,47.4842779 54.629743,48.7005349 55.3199598,49.8770972 C56.631012,52.1125992 55.618739,54.521049 53.7587068,55.5136434 C51.7193173,56.602045 49.1737912,55.7998281 48.0364739,53.6901574 C47.4598313,52.6204225 46.8862249,51.5491133 46.3084578,50.480053 C46.2314297,50.3373542 46.137759,50.2037639 46.0517349,50.0659004 C46.0195743,50.081306 45.9875261,50.0967116 45.955253,50.1118924" id="Fill-1"></path><path d="M22.7486956,22.5119213 C22.4817398,22.4489494 22.3532096,22.6131261 22.2047759,22.7066843 C16.495812,26.3054153 10.7889847,29.9076321 5.08170763,33.5088369 C4.36022972,33.9641462 3.76626988,33.8076161 3.56431004,33.1106522 C3.41047871,32.5795518 3.69407711,32.2637928 4.10451888,32.0043711 C6.37971566,30.5655759 8.6534506,29.1244193 10.9276353,27.6841622 C14.3863663,25.4936402 17.8452096,23.3034554 21.303041,21.1115839 C21.426061,21.0336562 21.5387357,20.9393108 21.7511534,20.7826683 C20.4824948,20.492098 19.3095309,20.2224434 18.1358924,19.9552627 C17.4438763,19.7977205 16.7484867,19.6541221 16.0589446,19.4860096 C15.4323743,19.3333028 15.1458522,18.9035197 15.2652739,18.3404835 C15.3716514,17.8389574 15.8525992,17.5555839 16.4450972,17.685351 C19.036053,18.2526602 21.6259968,18.8244675 24.2130169,19.4092064 C24.9529365,19.5764193 25.1921173,19.9851743 25.0281655,20.7326281 C24.4717639,23.268596 23.9083904,25.8029896 23.3497398,28.3385076 C23.2571936,28.7582827 23.1160691,29.1353269 22.6347839,29.2444032 C21.9120691,29.4081301 21.3566795,28.8480177 21.5208562,28.080098 C21.8682137,26.4545237 22.2428964,24.8346843 22.6050972,23.2122586 C22.6567116,22.9810618 22.7004546,22.7480659 22.7486956,22.5119213" id="Fill-4"></path></g></g></svg> 