<?xml version="1.0" encoding="UTF-8"?> <svg xmlns="http://www.w3.org/2000/svg" xmlns:xlink="http://www.w3.org/1999/xlink" width="80px" height="80px" viewBox="0 0 80 80"><!-- Generator: Sketch 57.1 (83088) - https://sketch.com --><title>Mobile-App-Development</title><desc>Created with Sketch.</desc><g id="Mobile-App-Development" stroke="none" stroke-width="1" fill="none" fill-rule="evenodd"><g id="Shape-5" transform="translate(10.000000, 13.000000)" fill="#2E86BD" fill-rule="nonzero"><path d="M18.6206897,27 C18.6206897,33.1606552 23.6324483,38.1724138 29.7931034,38.1724138 C35.9537586,38.1724138 40.9655172,33.1606552 40.9655172,27 C40.9655172,20.8393448 35.9537586,15.8275862 29.7931034,15.8275862 C23.6324483,15.8275862 18.6206897,20.8393448 18.6206897,27 Z M29.7931034,17.6896552 C34.9268276,17.6896552 39.1034483,21.8662759 39.1034483,27 C39.1034483,32.1337241 34.9268276,36.3103448 29.7931034,36.3103448 C24.6593793,36.3103448 20.4827586,32.1337241 20.4827586,27 C20.4827586,21.8662759 24.6593793,17.6896552 29.7931034,17.6896552 Z M32.859,29.1348621 L34.9938621,27 L32.859,24.8651379 L34.1754828,23.5486552 L37.6268276,27 L34.1754828,30.4513448 L32.859,29.1348621 Z M21.9593793,27 L25.4107241,23.5486552 L26.7272069,24.8651379 L24.5923448,27 L26.7272069,29.1348621 L25.4107241,30.4513448 L21.9593793,27 Z M29.7744828,31.8376552 L27.9487241,31.4717586 L29.8107931,22.1614138 L31.6365517,22.5273103 L29.7744828,31.8376552 Z M50.2758621,9.31034483 L50.2758621,18.6206897 L59.5862069,18.6206897 L59.5862069,9.31034483 L50.2758621,9.31034483 Z M57.7241379,16.7586207 L52.137931,16.7586207 L52.137931,11.1724138 L57.7241379,11.1724138 L57.7241379,16.7586207 Z M55.862069,14.8965517 L54,14.8965517 L54,13.0344828 L55.862069,13.0344828 L55.862069,14.8965517 Z M39.1034483,13.0344828 L48.4137931,13.0344828 L48.4137931,14.8965517 L39.1034483,14.8965517 L39.1034483,13.0344828 Z M20.4827586,16.7586207 L11.1724138,16.7586207 L11.1724138,14.8965517 L20.4827586,14.8965517 L20.4827586,16.7586207 Z M0,20.4827586 L9.31034483,20.4827586 L9.31034483,11.1724138 L0,11.1724138 L0,20.4827586 Z M1.86206897,13.0344828 L7.44827586,13.0344828 L7.44827586,18.6206897 L1.86206897,18.6206897 L1.86206897,13.0344828 Z M3.72413793,14.8965517 L5.5862069,14.8965517 L5.5862069,16.7586207 L3.72413793,16.7586207 L3.72413793,14.8965517 Z M20.4827586,40.9655172 L11.1724138,40.9655172 L11.1724138,39.1034483 L20.4827586,39.1034483 L20.4827586,40.9655172 Z M0,44.6896552 L9.31034483,44.6896552 L9.31034483,35.3793103 L0,35.3793103 L0,44.6896552 Z M1.86206897,37.2413793 L7.44827586,37.2413793 L7.44827586,42.8275862 L1.86206897,42.8275862 L1.86206897,37.2413793 Z M3.72413793,39.1034483 L5.5862069,39.1034483 L5.5862069,40.9655172 L3.72413793,40.9655172 L3.72413793,39.1034483 Z M39.1034483,37.2413793 L48.4137931,37.2413793 L48.4137931,39.1034483 L39.1034483,39.1034483 L39.1034483,37.2413793 Z M50.2758621,42.8275862 L59.5862069,42.8275862 L59.5862069,33.5172414 L50.2758621,33.5172414 L50.2758621,42.8275862 Z M52.137931,35.3793103 L57.7241379,35.3793103 L57.7241379,40.9655172 L52.137931,40.9655172 L52.137931,35.3793103 Z M54,37.2413793 L55.862069,37.2413793 L55.862069,39.1034483 L54,39.1034483 L54,37.2413793 Z M32.5862069,49.3448276 L27,49.3448276 L27,47.4827586 L32.5862069,47.4827586 L32.5862069,49.3448276 Z M28.862069,4.65517241 L34.4482759,4.65517241 L34.4482759,6.51724138 L28.862069,6.51724138 L28.862069,4.65517241 Z M25.137931,4.65517241 L27,4.65517241 L27,6.51724138 L25.137931,6.51724138 L25.137931,4.65517241 Z M44.6896552,42.8275862 L13.0344828,42.8275862 L13.0344828,50.2758621 C13.0344828,52.3297241 14.7047586,54 16.7586207,54 L42.8275862,54 C44.8814483,54 46.5517241,52.3297241 46.5517241,50.2758621 L46.5517241,40.9655172 L44.6896552,40.9655172 L44.6896552,42.8275862 Z M44.6896552,50.2758621 C44.6896552,51.3027931 43.8545172,52.137931 42.8275862,52.137931 L16.7586207,52.137931 C15.7316897,52.137931 14.8965517,51.3027931 14.8965517,50.2758621 L14.8965517,44.6896552 L44.6896552,44.6896552 L44.6896552,50.2758621 Z M13.0344828,37.2413793 L13.0344828,18.6206897 L14.8965517,18.6206897 L14.8965517,37.2413793 L13.0344828,37.2413793 Z M14.8965517,11.1724138 L46.5517241,11.1724138 L46.5517241,3.72413793 C46.5517241,1.67027586 44.8814483,0 42.8275862,0 L16.7586207,0 C14.7047586,0 13.0344828,1.67027586 13.0344828,3.72413793 L13.0344828,13.0344828 L14.8965517,13.0344828 L14.8965517,11.1724138 Z M14.8965517,3.72413793 C14.8965517,2.6972069 15.7316897,1.86206897 16.7586207,1.86206897 L42.8275862,1.86206897 C43.8545172,1.86206897 44.6896552,2.6972069 44.6896552,3.72413793 L44.6896552,9.31034483 L14.8965517,9.31034483 L14.8965517,3.72413793 Z M46.5517241,16.7586207 L46.5517241,35.3793103 L44.6896552,35.3793103 L44.6896552,16.7586207 L46.5517241,16.7586207 Z" id="Shape"></path></g></g></svg> 