<?xml version="1.0" encoding="UTF-8"?> <svg xmlns="http://www.w3.org/2000/svg" xmlns:xlink="http://www.w3.org/1999/xlink" width="80px" height="80px" viewBox="0 0 80 80"><!-- Generator: Sketch 57.1 (83088) - https://sketch.com --><title>Website-Development</title><desc>Created with Sketch.</desc><g id="Website-Development" stroke="none" stroke-width="1" fill="none" fill-rule="evenodd"><g id="data" transform="translate(10.000000, 10.000000)" fill="#2E86BD" fill-rule="nonzero"><path d="M6.90951191,21.9196413 C7.08071614,22.0908455 7.30547901,22.1769055 7.53024176,22.1769055 C7.75500463,22.1769055 7.9797675,22.0913034 8.15142958,21.9196413 C8.49429588,21.576775 8.49429588,21.0205899 8.15142958,20.6777236 L6.019158,18.5454521 L8.15142958,16.4136383 C8.49429588,16.0703142 8.49429588,15.514587 8.15142958,15.1717207 C7.80856316,14.8288543 7.25237821,14.8288543 6.90951191,15.1717207 L4.15651038,17.9247221 C3.99171481,18.0895177 3.89924625,18.3129072 3.89924625,18.5454521 C3.89924625,18.7784548 3.99171481,19.0018443 4.15651038,19.1666399 L6.90951191,21.9196413 Z" id="Path"></path><path d="M15.6235351,18.5454521 L13.4912636,20.6777236 C13.1483973,21.0205899 13.1483973,21.576775 13.4917214,21.9196413 C13.6629257,22.0908455 13.8876885,22.1769055 14.1124513,22.1769055 C14.3372142,22.1769055 14.5619771,22.0908455 14.7331813,21.9196413 L17.4866406,19.166182 C17.8295069,18.8233157 17.8295069,18.2671307 17.4866406,17.9247221 L14.7331813,15.1712629 C14.390315,14.8283965 13.8345878,14.8283965 13.4917214,15.1712629 C13.1483973,15.514587 13.1483973,16.0703142 13.4917214,16.4131806 L15.6235351,18.5454521 Z" id="Path"></path><path d="M9.51236626,22.1160226 C9.61765226,22.1572216 9.72660049,22.1769055 9.83325982,22.1769055 C10.1839082,22.1769055 10.5148726,21.9654178 10.650829,21.6198049 L12.8137708,16.1133442 C12.9913838,15.6619875 12.7689098,15.1524945 12.317553,14.9748815 C11.866654,14.7977263 11.3567033,15.0197425 11.1795481,15.4710992 L9.0161485,20.9775599 C8.83899324,21.4289167 9.06100946,21.9388675 9.51236626,22.1160226 Z" id="Path"></path><path d="M5.27437357,27.328598 L11.1900766,27.328598 C11.6748503,27.328598 12.0680709,26.9353774 12.0680709,26.450146 C12.0680709,25.9653724 11.6748503,25.5721519 11.1900766,25.5721519 L5.27437357,25.5721519 C4.7891423,25.5721519 4.39637948,25.9653724 4.39637948,26.450146 C4.39637948,26.9353774 4.7891423,27.328598 5.27437357,27.328598 Z" id="Path"></path><path d="M24.8150078,25.5721519 L14.4145765,25.5721519 C13.929803,25.5721519 13.5365824,25.9653724 13.5365824,26.450146 C13.5365824,26.9353774 13.929803,27.328598 14.4145765,27.328598 L24.8150078,27.328598 C25.3002392,27.328598 25.6934597,26.9353774 25.6934597,26.450146 C25.6934597,25.9653724 25.3002392,25.5721519 24.8150078,25.5721519 Z" id="Path"></path><path d="M5.27437357,31.0323783 L7.79437252,31.0323783 C8.27914617,31.0323783 8.67236661,30.6391578 8.67236661,30.1539264 C8.67236661,29.6691527 8.27914617,29.2759322 7.79437252,29.2759322 L5.27437357,29.2759322 C4.7891423,29.2759322 4.39637948,29.6691527 4.39637948,30.1539264 C4.39637948,30.6391578 4.7891423,31.0323783 5.27437357,31.0323783 Z" id="Path"></path><path d="M21.6024099,29.2759322 C21.1171785,29.2759322 20.7244156,29.6691527 20.7244156,30.1539264 C20.7244156,30.6391578 21.1171785,31.0323783 21.6024099,31.0323783 L23.1368397,31.0323783 C23.6220711,31.0323783 24.0152916,30.6391578 24.0152916,30.1539264 C24.0152916,29.6691527 23.6220711,29.2759322 23.1368397,29.2759322 L21.6024099,29.2759322 Z" id="Path"></path><path d="M19.2911521,30.1539264 C19.2911521,29.6691527 18.8979315,29.2759322 18.4131579,29.2759322 L10.8755919,29.2759322 C10.3903604,29.2759322 9.99759765,29.6691527 9.99759765,30.1539264 C9.99759765,30.6391578 10.3903604,31.0323783 10.8755919,31.0323783 L18.4131579,31.0323783 C18.8979315,31.0323783 19.2911521,30.6391578 19.2911521,30.1539264 Z" id="Path"></path><path d="M25.0434328,30.1539264 C25.0434328,30.6391578 25.4366533,31.0323783 25.9214269,31.0323783 L28.7957362,31.0323783 C29.2809676,31.0323783 29.6741882,30.6391578 29.6741882,30.1539264 C29.6741882,29.6691527 29.2809676,29.2759322 28.7957362,29.2759322 L25.9214269,29.2759322 C25.4366533,29.2759322 25.0434328,29.6691527 25.0434328,30.1539264 Z" id="Path"></path><path d="M20.261157,19.2499531 L23.2929377,19.2499531 C23.7781691,19.2499531 24.1713896,18.8567326 24.1713896,18.3715012 C24.1713896,17.8867275 23.7781691,17.4935071 23.2929377,17.4935071 L20.261157,17.4935071 C19.7759256,17.4935071 19.3827052,17.8867275 19.3827052,18.3715012 C19.3827052,18.8567326 19.7759256,19.2499531 20.261157,19.2499531 Z" id="Path"></path><path d="M26.6886419,19.2499531 L45.1874018,19.2499531 C45.6726332,19.2499531 46.065396,18.8567326 46.065396,18.3715012 C46.065396,17.8867275 45.6726332,17.4935071 45.1874018,17.4935071 L26.6886419,17.4935071 C26.2034104,17.4935071 25.81019,17.8867275 25.81019,18.3715012 C25.81019,18.8567326 26.2034104,19.2499531 26.6886419,19.2499531 Z" id="Path"></path><path d="M42.3776375,21.3570476 L34.8840169,21.3570476 C34.3992432,21.3570476 34.0060228,21.750268 34.0060228,22.2354995 C34.0060228,22.720273 34.3992432,23.1134936 34.8840169,23.1134936 L42.3776375,23.1134936 C42.862411,23.1134936 43.2556316,22.720273 43.2556316,22.2354995 C43.2556316,21.750268 42.862411,21.3570476 42.3776375,21.3570476 Z" id="Path"></path><path d="M32.0742525,21.3570476 L29.4984062,21.3570476 C29.0131749,21.3570476 28.620412,21.750268 28.620412,22.2354995 C28.620412,22.720273 29.0131749,23.1134936 29.4984062,23.1134936 L32.0742525,23.1134936 C32.5594839,23.1134936 32.9522466,22.720273 32.9522466,22.2354995 C32.9522466,21.750268 32.5594839,21.3570476 32.0742525,21.3570476 Z" id="Path"></path><path d="M20.261157,23.1134936 L26.571454,23.1134936 C27.0562275,23.1134936 27.449448,22.720273 27.449448,22.2354995 C27.449448,21.750268 27.0562275,21.3570476 26.571454,21.3570476 L20.261157,21.3570476 C19.7759256,21.3570476 19.3827052,21.750268 19.3827052,22.2354995 C19.3827052,22.720273 19.7759256,23.1134936 20.261157,23.1134936 Z" id="Path"></path><path d="M18.4241442,32.9485845 L12.508899,32.9485845 C12.0236675,32.9485845 11.6304471,33.341805 11.6304471,33.8265787 C11.6304471,34.3113522 12.0236675,34.7045728 12.508899,34.7045728 L18.4241442,34.7045728 C18.9089179,34.7045728 19.3021384,34.3113522 19.3021384,33.8265787 C19.3021384,33.341805 18.9089179,32.9485845 18.4241442,32.9485845 Z" id="Path"></path><path d="M9.81906906,32.9485845 L5.27437357,32.9485845 C4.7891423,32.9485845 4.39637948,33.341805 4.39637948,33.8265787 C4.39637948,34.3113522 4.7891423,34.7045728 5.27437357,34.7045728 L9.81906906,34.7045728 C10.3043006,34.7045728 10.6970633,34.3113522 10.6970633,33.8265787 C10.6970633,33.341805 10.3043006,32.9485845 9.81906906,32.9485845 Z" id="Path"></path><path d="M29.1473001,32.9485845 L21.4197614,32.9485845 C20.93453,32.9485845 20.5417672,33.341805 20.5417672,33.8265787 C20.5417672,34.3113522 20.93453,34.7045728 21.4197614,34.7045728 L29.1473001,34.7045728 C29.6320738,34.7045728 30.0252943,34.3113522 30.0252943,33.8265787 C30.0252943,33.341805 29.6320738,32.9485845 29.1473001,32.9485845 L29.1473001,32.9485845 Z" id="Path"></path><path d="M39.5976279,28.4377637 L35.3719949,28.4377637 C34.8872212,28.4377637 34.4940007,28.8309843 34.4940007,29.3157578 C34.4940007,29.8009892 34.8872212,30.1942097 35.3719949,30.1942097 L39.5976279,30.1942097 C40.0828592,30.1942097 40.475622,29.8009892 40.475622,29.3157578 C40.475622,28.8309843 40.0828592,28.4377637 39.5976279,28.4377637 L39.5976279,28.4377637 Z" id="Path"></path><path d="M46.930115,30.1942097 L52.8952567,30.1942097 C53.3804881,30.1942097 53.7737086,29.8009892 53.7737086,29.3157578 C53.7737086,28.8309843 53.3804881,28.4377637 52.8952567,28.4377637 L46.930115,28.4377637 C46.4448836,28.4377637 46.0521208,28.8309843 46.0521208,29.3157578 C46.0521208,29.8009892 46.4453413,30.1942097 46.930115,30.1942097 Z" id="Path"></path><path d="M43.9473152,28.4377637 L42.5804275,28.4377637 C42.0951962,28.4377637 41.7019757,28.8309843 41.7019757,29.3157578 C41.7019757,29.8009892 42.0951962,30.1942097 42.5804275,30.1942097 L43.9473152,30.1942097 C44.4325466,30.1942097 44.8253093,29.8009892 44.8253093,29.3157578 C44.8253093,28.8309843 44.4325466,28.4377637 43.9473152,28.4377637 Z" id="Path"></path><path d="M35.3719949,39.7633389 L39.5976279,39.7633389 C40.0828592,39.7633389 40.475622,39.3705762 40.475622,38.8853447 C40.475622,38.4005712 40.0828592,38.0073506 39.5976279,38.0073506 L35.3719949,38.0073506 C34.8872212,38.0073506 34.4940007,38.4005712 34.4940007,38.8853447 C34.4940007,39.3705762 34.8872212,39.7633389 35.3719949,39.7633389 L35.3719949,39.7633389 Z" id="Path"></path><path d="M46.930115,39.7633389 L52.8952567,39.7633389 C53.3804881,39.7633389 53.7737086,39.3705762 53.7737086,38.8853447 C53.7737086,38.4005712 53.3804881,38.0073506 52.8952567,38.0073506 L46.930115,38.0073506 C46.4448836,38.0073506 46.0521208,38.4005712 46.0521208,38.8853447 C46.0521208,39.3705762 46.4453413,39.7633389 46.930115,39.7633389 Z" id="Path"></path><path d="M42.5804275,39.7633389 L43.9473152,39.7633389 C44.4325466,39.7633389 44.8257672,39.3705762 44.8257672,38.8853447 C44.8257672,38.4005712 44.4325466,38.0073506 43.9473152,38.0073506 L42.5804275,38.0073506 C42.0951962,38.0073506 41.7024334,38.4005712 41.7024334,38.8853447 C41.7024334,39.3705762 42.0951962,39.7633389 42.5804275,39.7633389 Z" id="Path"></path><path d="M39.5976279,47.5769375 L35.3719949,47.5769375 C34.8872212,47.5769375 34.4940007,47.9701581 34.4940007,48.4549317 C34.4940007,48.9397054 34.8872212,49.3329258 35.3719949,49.3329258 L39.5976279,49.3329258 C40.0828592,49.3329258 40.475622,48.9397054 40.475622,48.4549317 C40.475622,47.9701581 40.0828592,47.5769375 39.5976279,47.5769375 L39.5976279,47.5769375 Z" id="Path"></path><path d="M52.8952567,47.5769375 L46.930115,47.5769375 C46.4448836,47.5769375 46.0521208,47.9701581 46.0521208,48.4549317 C46.0521208,48.9397054 46.4448836,49.3329258 46.930115,49.3329258 L52.8952567,49.3329258 C53.3804881,49.3329258 53.7737086,48.9397054 53.7737086,48.4549317 C53.7737086,47.9701581 53.3804881,47.5769375 52.8952567,47.5769375 L52.8952567,47.5769375 Z" id="Path"></path><path d="M43.9473152,47.5769375 L42.5804275,47.5769375 C42.0951962,47.5769375 41.7019757,47.9701581 41.7019757,48.4549317 C41.7019757,48.9397054 42.0951962,49.3329258 42.5804275,49.3329258 L43.9473152,49.3329258 C44.4325466,49.3329258 44.8253093,48.9397054 44.8253093,48.4549317 C44.8253093,47.9701581 44.4325466,47.5769375 43.9473152,47.5769375 Z" id="Path"></path><path d="M56.1357784,0.0585939789 L3.86491381,0.0585939789 C1.73401556,0.0585939789 -2.84217094e-14,1.79215181 -2.84217094e-14,3.92350779 L-2.84217094e-14,46.4119245 C-2.84217094e-14,48.5428227 1.73401556,50.2763805 3.86491381,50.2763805 L7.16952269,50.2763805 C7.65429623,50.2763805 8.04751679,49.8836177 8.04751679,49.3983863 C8.04751679,48.9136127 7.65429623,48.5203921 7.16952269,48.5203921 L3.86491381,48.5203921 C2.70218954,48.5203921 1.75644604,47.5746487 1.75644604,46.4119245 L1.75644604,43.0807652 L33.7483008,43.0807652 L33.7483008,44.5941378 L33.0520395,44.5941378 C32.0994295,44.5941378 31.3248905,45.3686769 31.3248905,46.321287 L31.3248905,48.5203921 L12.5084412,48.5203921 C12.0236675,48.5203921 11.6304471,48.9136127 11.6304471,49.3983863 C11.6304471,49.8836177 12.0236675,50.2763805 12.5084412,50.2763805 L20.9514673,50.2763805 L20.9514673,53.4258069 L18.3000898,53.4258069 C16.531284,53.4258069 15.0925272,54.8650215 15.0925272,56.6333694 L15.0925272,58.5303495 C15.0925272,59.33739 15.7489629,59.9938256 16.5560034,59.9938256 L43.3773973,59.9938256 C44.1844377,59.9938256 44.8408734,59.33739 44.8408734,58.5303495 L44.8408734,56.6333694 C44.8408734,54.8650215 43.4021165,53.4258069 41.6333108,53.4258069 L38.9819332,53.4258069 L38.9819332,52.3157256 L55.2156698,52.3157256 C56.1678219,52.3157256 56.9423611,51.5411864 56.9423611,50.5885765 L56.9423611,50.1752143 C58.6539462,49.7778739 59.9334007,48.2420707 59.9334007,46.4119245 L59.9997767,3.92304993 C59.9997767,1.79215181 58.2666765,0.0585939789 56.1357784,0.0585939789 L56.1357784,0.0585939789 Z M33.0813365,40.9901504 L33.0813365,36.7809969 L55.1863728,36.7809969 L55.1863728,40.9901504 L33.0813365,40.9901504 Z M35.5042891,35.0245509 L35.5042891,33.1770095 L52.7629625,33.1770095 L52.7629625,35.0245509 L35.5042891,35.0245509 Z M52.7629625,42.7461387 L52.7629625,44.5941378 L35.5042891,44.5941378 L35.5042891,42.7461387 L52.7629625,42.7461387 Z M22.7074556,50.2763805 L31.3248905,50.2763805 L31.3248905,50.5890343 C31.3248905,51.5411864 32.0994295,52.3157256 33.0520395,52.3157256 L37.2259449,52.3157256 L37.2259449,53.4258069 L22.7074556,53.4258069 L22.7074556,50.2763805 Z M41.6337686,55.1822529 C42.4339426,55.1822529 43.0848851,55.8331954 43.0848851,56.6333694 L43.0848851,58.2378374 L16.8485156,58.2378374 L16.8485156,56.6333694 C16.8485156,55.8331954 17.4999157,55.1822529 18.3000898,55.1822529 L41.6337686,55.1822529 Z M55.1863728,50.5592795 L33.0813365,50.5592795 L33.0813365,46.3505839 L55.1863728,46.3505839 L55.1863728,50.5592795 Z M58.1774123,46.4119245 C58.1774123,47.2624527 57.6702082,47.9953352 56.9428188,48.3281307 L56.9428188,46.3208291 C56.9428188,45.3686769 56.1678219,44.5941378 55.2156698,44.5941378 L54.5194086,44.5941378 L54.5194086,43.0807652 L58.1774123,43.0807652 L58.1774123,46.4119245 Z M58.1774123,41.3247769 L56.9139796,41.3247769 C56.9318325,41.2254417 56.9428188,36.7516999 56.9428188,36.7516999 C56.9428188,35.79909 56.1678219,35.0245509 55.2156698,35.0245509 L54.5194086,35.0245509 L54.5194086,33.1770095 L55.2156698,33.1770095 C56.1678219,33.1770095 56.9428188,32.4020126 56.9428188,31.4498604 L56.9428188,27.182113 C56.9428188,26.2299609 56.1678219,25.454964 55.2156698,25.454964 L50.255781,25.454964 C49.7705496,25.454964 49.3777869,25.8481844 49.3777869,26.3334159 C49.3777869,26.8181894 49.7705496,27.21141 50.255781,27.21141 L55.1863728,27.21141 L55.1863728,31.4205634 L33.0813365,31.4205634 L33.0813365,27.21141 L44.7918925,27.21141 C45.2771239,27.21141 45.6698867,26.8181894 45.6698867,26.3334159 C45.6698867,25.8481844 45.2771239,25.454964 44.7918925,25.454964 L33.0520395,25.454964 C32.0994295,25.454964 31.3248905,26.2299609 31.3248905,27.182113 L31.3248905,31.4498604 C31.3248905,32.4020126 32.0994295,33.1770095 33.0520395,33.1770095 L33.7483008,33.1770095 L33.7483008,35.0245509 L33.0520395,35.0245509 C32.0994295,35.0245509 31.3248905,35.7995478 31.3248905,36.7516999 C31.3248905,36.7516999 31.3358769,41.2254417 31.3537296,41.3247769 L1.75644604,41.3247769 L1.75644604,12.003526 L58.1774123,12.003526 L58.1774123,41.3247769 Z M58.1774123,10.2470798 L1.82099094,10.2470798 L1.82099094,3.92304993 C1.82099094,2.76078352 2.76673444,1.81504002 3.92945871,1.81504002 L56.0689446,1.81504002 C57.2316689,1.81504002 58.1774123,2.76078352 58.1774123,3.92350779 L58.1774123,10.2470798 Z" id="Shape"></path><path d="M6.47600799,3.42912109 C5.055104,3.42912109 3.89924625,4.58497885 3.89924625,6.00588284 C3.89924625,7.42678682 5.055104,8.58310243 6.47600799,8.58310243 C7.89691198,8.58310243 9.05322747,7.42678682 9.05322747,6.00588284 C9.05322747,4.58497885 7.89691198,3.42912109 6.47600799,3.42912109 Z M6.47600799,6.82665628 C6.02373572,6.82665628 5.65523443,6.45861285 5.65523443,6.00588284 C5.65523443,5.55361056 6.02373572,5.18510939 6.47600799,5.18510939 C6.928738,5.18510939 7.29678143,5.55361056 7.29678143,6.00588284 C7.29678143,6.45861285 6.928738,6.82665628 6.47600799,6.82665628 Z" id="Shape"></path><path d="M13.0371603,3.42912109 C11.6162563,3.42912109 10.4599407,4.58497885 10.4599407,6.00588284 C10.4599407,7.42678682 11.6162563,8.58310243 13.0371603,8.58310243 C14.4580643,8.58310243 15.613922,7.42678682 15.613922,6.00588284 C15.613922,4.58497885 14.4576066,3.42912109 13.0371603,3.42912109 Z M13.0371603,6.82665628 C12.5844303,6.82665628 12.2163869,6.45861285 12.2163869,6.00588284 C12.2163869,5.55361056 12.5844303,5.18510939 13.0371603,5.18510939 C13.4894326,5.18510939 13.8579337,5.55361056 13.8579337,6.00588284 C13.8579337,6.45861285 13.4894326,6.82665628 13.0371603,6.82665628 Z" id="Shape"></path><path d="M19.5978549,3.42912109 C18.1769509,3.42912109 17.0210931,4.58497885 17.0210931,6.00588284 C17.0210931,7.42678682 18.1769509,8.58310243 19.5978549,8.58310243 C21.0187589,8.58310243 22.1750744,7.42678682 22.1750744,6.00588284 C22.1750744,4.58497885 21.0187589,3.42912109 19.5978549,3.42912109 Z M19.5978549,6.82665628 C19.1455826,6.82665628 18.7770814,6.45861285 18.7770814,6.00588284 C18.7770814,5.55361056 19.1455826,5.18510939 19.5978549,5.18510939 C20.0505849,5.18510939 20.4186283,5.55361056 20.4186283,6.00588284 C20.4186283,6.45861285 20.0505849,6.82665628 19.5978549,6.82665628 Z" id="Shape"></path></g></g></svg> 